<?xml version="1.0" encoding="UTF-8" standalone="no"?>
<!DOCTYPE svg PUBLIC "-//W3C//DTD SVG 1.1//EN" "http://www.w3.org/Graphics/SVG/1.1/DTD/svg11.dtd">
<!-- Generated by Microsoft Visio, SVG Export architecture.svg Page-1 -->
<svg xmlns="http://www.w3.org/2000/svg" xmlns:xlink="http://www.w3.org/1999/xlink" xmlns:ev="http://www.w3.org/2001/xml-events"
		xmlns:v="http://schemas.microsoft.com/visio/2003/SVGExtensions/" width="7.75175in" height="5.20075in"
		viewBox="0 0 558.126 374.454" xml:space="preserve" color-interpolation-filters="sRGB" class="st18">
	<v:documentProperties v:langID="2057" v:metric="true" v:viewMarkup="false"/>

	<style type="text/css">
	<![CDATA[
		.st1 {fill:#ffffff;stroke:none;stroke-linecap:round;stroke-linejoin:round;stroke-width:0.5}
		.st2 {fill:#f6efd9;stroke:#b8b8b8;stroke-linecap:round;stroke-linejoin:round;stroke-width:0.5}
		.st3 {fill:#eaeaea;stroke:#262626;stroke-linecap:round;stroke-linejoin:round;stroke-width:0.5}
		.st4 {fill:#eaeaea}
		.st5 {stroke:#262626;stroke-linecap:round;stroke-linejoin:round;stroke-width:0.5}
		.st6 {fill:#262626}
		.st7 {fill:#7f7f7f;stroke:none;stroke-linecap:round;stroke-linejoin:round;stroke-width:6.375}
		.st8 {fill:#676767;stroke:none;stroke-linecap:round;stroke-linejoin:round;stroke-width:6.375}
		.st9 {fill:#545454;stroke:none;stroke-linecap:butt;stroke-width:0.75}
		.st10 {marker-end:url(#mrkr6-45);stroke:#b8b8b8;stroke-linecap:round;stroke-linejoin:round;stroke-width:0.5}
		.st11 {fill:#b8b8b8;fill-opacity:1;stroke:#b8b8b8;stroke-opacity:1;stroke-width:0.16556291390728}
		.st12 {stroke:#b8b8b8;stroke-linecap:round;stroke-linejoin:round;stroke-width:0.5}
		.st13 {fill:#000000;font-family:Arial;font-size:1.16666em}
		.st14 {fill:#f4f4f4;stroke:#262626;stroke-linecap:round;stroke-linejoin:round;stroke-width:0.5}
		.st15 {fill:#f6efd9;stroke:none;stroke-linecap:round;stroke-linejoin:round;stroke-width:0.5}
		.st16 {fill:none;stroke:none;stroke-linecap:round;stroke-linejoin:round;stroke-width:0.5}
		.st17 {fill:#4d4d4d;font-family:Bradley Hand ITC;font-size:1.5em;font-weight:bold}
		.st18 {fill:none;fill-rule:evenodd;font-size:12px;overflow:visible;stroke-linecap:square;stroke-miterlimit:3}
	]]>
	</style>

	<defs id="Markers">
		<g id="lend6">
			<path d="M 2 1 L 0 0 L 2.01237 -1.00641 C 2.32921 -0.372876 2.32921 0.372869 2.01238 1.0064 " style="stroke:none"/>
		</g>
		<marker id="mrkr6-45" class="st11" v:arrowType="6" v:arrowSize="2" v:setback="13.59" refX="-13.59" orient="auto"
				markerUnits="strokeWidth" overflow="visible">
			<use xlink:href="#lend6" transform="scale(-6.04,-6.04) "/>
		</marker>
	</defs>
	<g v:mID="0" v:index="1" v:groupContext="foregroundPage">
		<title>Page-1</title>
		<v:pageProperties v:drawingScale="0.0393701" v:pageScale="0.0393701" v:drawingUnits="24" v:shadowOffsetX="8.50394"
				v:shadowOffsetY="-8.50394"/>
		<v:layer v:name="Flowchart" v:index="0"/>
		<v:layer v:name="Connector" v:index="1"/>
		<g id="shape44-1" v:mID="44" v:groupContext="shape" transform="translate(26.0708,-17.5735)">
			<title>Sheet.44</title>
			<rect x="0" y="35.147" width="505.984" height="339.307" class="st1"/>
		</g>
		<g id="shape40-3" v:mID="40" v:groupContext="shape" transform="translate(141.586,-35.2071)">
			<title>Sheet.40</title>
			<path d="M3.54 254.61 C7.67 246.79 8.42 238.12 12.04 231.93 C18.34 221.19 33.31 217.91 48.33 214.92 C72.93 210.02 97.68
						 205.86 119.2 199.33 C132.75 195.22 145.01 190.16 157.18 183.74 C171.39 176.24 185.46 166.88 197.71 156.81
						 C207.68 148.62 216.45 139.97 223.22 128.46 C233.06 111.78 238.7 89.1 254.41 77.44 C267.38 67.82 287.22 65.72
						 302.59 70.35 C323.74 76.73 336.44 95.86 345.12 117.13 C360.24 154.2 363.13 197.76 363.54 241.85 C363.74
						 264.37 363.3 287.03 362.12 309.88 C361.31 325.61 360.15 341.43 352.77 350.99 C344.15 362.13 327.05 364.73
						 309.68 366.58 C260.51 371.79 209.11 370.91 155.19 373.1 C111.29 374.87 65.71 378.68 36.99 361.76 C4.54 342.64
						 -6.4 297.05 3.54 254.61 Z" class="st2"/>
		</g>
		<g id="shape26-5" v:mID="26" v:groupContext="shape" transform="translate(396.62,-262.77)">
			<title>Circle.26</title>
			<v:userDefs>
				<v:ud v:nameU="visVersion" v:val="VT0(15):26"/>
			</v:userDefs>
			<path d="M0 348.92 A25.5386 25.5386 0 0 1 51.08 348.92 A25.5386 25.5386 0 1 1 0 348.92 Z" class="st3"/>
		</g>
		<g id="shape5-7" v:mID="5" v:groupContext="shape" transform="translate(195.614,-262.77)">
			<title>Circle</title>
			<v:userDefs>
				<v:ud v:nameU="visVersion" v:val="VT0(15):26"/>
			</v:userDefs>
			<path d="M0 348.92 A25.5386 25.5386 0 0 1 51.08 348.92 A25.5386 25.5386 0 1 1 0 348.92 Z" class="st3"/>
		</g>
		<g id="shape13-9" v:mID="13" v:groupContext="shape" v:layerMember="0" transform="translate(198.475,-149.951)">
			<title>Disk storage</title>
			<v:custProps>
				<v:cp v:nameU="Cost" v:lbl="Cost" v:type="7" v:format="@" v:langID="1033"/>
				<v:cp v:nameU="Duration" v:lbl="Duration" v:type="2" v:langID="1033"/>
				<v:cp v:nameU="Resources" v:lbl="Resources" v:langID="1033"/>
			</v:custProps>
			<v:userDefs>
				<v:ud v:nameU="visVersion" v:val="VT0(15):26"/>
			</v:userDefs>
			<path d="M0 351.78 L0 369.92 A22.6772 4.53543 -180 1 0 45.35 369.92 L45.35 351.78 A22.6772 4.53543 -180 0 0 0 351.78 Z"
					class="st4"/>
			<path d="M0 351.78 L0 369.92 A22.6772 4.53543 -180 1 0 45.35 369.92 L45.35 351.78 A22.6772 4.53543 -180 0 0 0 351.78"
					class="st5"/>
			<path d="M0 351.78 A22.6772 4.53543 -180 1 0 45.35 351.78" class="st5"/>
			<path d="M0 354.04 A22.6772 4.53543 -180 1 0 45.35 354.04" class="st5"/>
		</g>
		<g id="shape14-14" v:mID="14" v:groupContext="shape" v:layerMember="0" transform="translate(198.475,-130.818)">
			<title>Disk storage.14</title>
			<v:custProps>
				<v:cp v:nameU="Cost" v:lbl="Cost" v:type="7" v:format="@" v:langID="1033"/>
				<v:cp v:nameU="Duration" v:lbl="Duration" v:type="2" v:langID="1033"/>
				<v:cp v:nameU="Resources" v:lbl="Resources" v:langID="1033"/>
			</v:custProps>
			<v:userDefs>
				<v:ud v:nameU="visVersion" v:val="VT0(15):26"/>
			</v:userDefs>
			<path d="M0 351.78 L0 369.92 A22.6772 4.53543 -180 1 0 45.35 369.92 L45.35 351.78 A22.6772 4.53543 -180 0 0 0 351.78 Z"
					class="st4"/>
			<path d="M0 351.78 L0 369.92 A22.6772 4.53543 -180 1 0 45.35 369.92 L45.35 351.78 A22.6772 4.53543 -180 0 0 0 351.78"
					class="st5"/>
			<path d="M0 351.78 A22.6772 4.53543 -180 1 0 45.35 351.78" class="st5"/>
			<path d="M0 354.04 A22.6772 4.53543 -180 1 0 45.35 354.04" class="st5"/>
		</g>
		<g id="shape15-19" v:mID="15" v:groupContext="shape" v:layerMember="0" transform="translate(198.475,-112.316)">
			<title>Disk storage.15</title>
			<v:custProps>
				<v:cp v:nameU="Cost" v:lbl="Cost" v:type="7" v:format="@" v:langID="1033"/>
				<v:cp v:nameU="Duration" v:lbl="Duration" v:type="2" v:langID="1033"/>
				<v:cp v:nameU="Resources" v:lbl="Resources" v:langID="1033"/>
			</v:custProps>
			<v:userDefs>
				<v:ud v:nameU="visVersion" v:val="VT0(15):26"/>
			</v:userDefs>
			<path d="M0 351.78 L0 369.92 A22.6772 4.53543 -180 1 0 45.35 369.92 L45.35 351.78 A22.6772 4.53543 -180 0 0 0 351.78 Z"
					class="st4"/>
			<path d="M0 351.78 L0 369.92 A22.6772 4.53543 -180 1 0 45.35 369.92 L45.35 351.78 A22.6772 4.53543 -180 0 0 0 351.78"
					class="st5"/>
			<path d="M0 351.78 A22.6772 4.53543 -180 1 0 45.35 351.78" class="st5"/>
			<path d="M0 354.04 A22.6772 4.53543 -180 1 0 45.35 354.04" class="st5"/>
		</g>
		<g id="group17-24" transform="translate(65.7023,-262.77)" v:mID="17" v:groupContext="group">
			<v:custProps>
				<v:cp v:nameU="AssetNumber" v:lbl="Asset Number" v:prompt="" v:type="0" v:format="" v:sortKey="Asset"
						v:invis="false" v:ask="false" v:langID="1033" v:cal="0"/>
				<v:cp v:nameU="SerialNumber" v:lbl="Serial Number" v:prompt="" v:type="0" v:format="" v:sortKey="Asset"
						v:invis="false" v:ask="false" v:langID="1033" v:cal="0"/>
				<v:cp v:nameU="Location" v:lbl="Location" v:prompt="" v:type="0" v:format="" v:sortKey="Asset" v:invis="false"
						v:ask="false" v:langID="1033" v:cal="0"/>
				<v:cp v:nameU="Building" v:lbl="Building" v:prompt="" v:type="0" v:format="" v:sortKey="Asset" v:invis="false"
						v:ask="false" v:langID="1033" v:cal="0"/>
				<v:cp v:nameU="Room" v:lbl="Room" v:prompt="" v:type="0" v:format="" v:sortKey="Asset" v:invis="false"
						v:ask="false" v:langID="1033" v:cal="0"/>
				<v:cp v:nameU="Manufacturer" v:lbl="Manufacturer" v:prompt="" v:type="0" v:format="" v:sortKey="Equipment"
						v:invis="false" v:ask="false" v:langID="1033" v:cal="0"/>
				<v:cp v:nameU="ProductNumber" v:lbl="Product Number" v:prompt="" v:type="0" v:format="" v:sortKey="Equipment"
						v:invis="false" v:ask="false" v:langID="1033" v:cal="0"/>
				<v:cp v:nameU="PartNumber" v:lbl="Part Number" v:prompt="" v:type="0" v:format="" v:sortKey="Equipment"
						v:invis="false" v:ask="false" v:langID="1033" v:cal="0"/>
				<v:cp v:nameU="ProductDescription" v:lbl="Product Description" v:prompt="" v:type="0" v:format=""
						v:sortKey="Equipment" v:invis="false" v:ask="false" v:langID="1033" v:cal="0"/>
				<v:cp v:nameU="NetworkName" v:lbl="Network Name" v:prompt="" v:type="0" v:format="" v:sortKey="Network"
						v:invis="false" v:ask="false" v:langID="1033" v:cal="0"/>
				<v:cp v:nameU="IPAddress" v:lbl="IP Address" v:prompt="" v:type="0" v:format="" v:sortKey="Network" v:invis="false"
						v:ask="false" v:langID="1033" v:cal="0"/>
				<v:cp v:nameU="SubnetMask" v:lbl="Subnet Mask" v:prompt="" v:type="0" v:format="" v:sortKey="Network"
						v:invis="false" v:ask="false" v:langID="1033" v:cal="0"/>
				<v:cp v:nameU="AdminInterface" v:lbl="Administrative Interface" v:prompt="" v:type="0" v:format=""
						v:sortKey="Network" v:invis="false" v:ask="false" v:langID="1033" v:cal="0"/>
				<v:cp v:nameU="NumberofPorts" v:lbl="Number of Ports" v:prompt="" v:type="0" v:format="" v:sortKey="Network"
						v:invis="false" v:ask="false" v:langID="1033" v:cal="0"/>
				<v:cp v:nameU="CommunityString" v:lbl="Community String" v:prompt="" v:type="0" v:format="" v:sortKey="Network"
						v:invis="false" v:ask="false" v:langID="1033" v:cal="0"/>
				<v:cp v:nameU="NetworkDescription" v:lbl="Network Description" v:prompt="" v:type="0" v:format=""
						v:sortKey="Network" v:invis="false" v:ask="false" v:langID="1033" v:cal="0"/>
				<v:cp v:nameU="MACAddress" v:lbl="MAC Address" v:prompt="" v:type="0" v:format="" v:sortKey="Network"
						v:invis="false" v:ask="false" v:langID="1033" v:cal="0"/>
				<v:cp v:nameU="CPU" v:lbl="CPU" v:prompt="" v:type="0" v:format="" v:sortKey="Workstation" v:invis="false"
						v:ask="false" v:langID="1033" v:cal="0"/>
				<v:cp v:nameU="Memory" v:lbl="Memory" v:prompt="" v:type="0" v:format="" v:sortKey="Workstation" v:invis="false"
						v:ask="false" v:langID="1033" v:cal="0"/>
				<v:cp v:nameU="OperatingSystem" v:lbl="Operating System" v:prompt="" v:type="0" v:format="" v:sortKey="Workstation"
						v:invis="false" v:ask="false" v:langID="1033" v:cal="0"/>
				<v:cp v:nameU="HardDriveSize" v:lbl="Hard Drive Capacity" v:prompt="" v:type="0" v:format=""
						v:sortKey="Workstation" v:invis="false" v:ask="false" v:langID="1033" v:cal="0"/>
				<v:cp v:nameU="ShapeClass" v:lbl="ShapeClass" v:prompt="" v:type="0" v:format="" v:sortKey="" v:invis="true"
						v:ask="false" v:langID="1033" v:cal="0" v:val="VT4(Equipment)"/>
				<v:cp v:nameU="ShapeType" v:lbl="ShapeType" v:prompt="" v:type="0" v:format="" v:sortKey="" v:invis="true"
						v:ask="false" v:langID="1033" v:cal="0" v:val="VT4(Computer)"/>
				<v:cp v:nameU="SubShapeType" v:lbl="SubShapeType" v:prompt="" v:type="0" v:format="" v:sortKey="" v:invis="true"
						v:ask="false" v:langID="1033" v:cal="0" v:val="VT4(Laptop)"/>
			</v:custProps>
			<v:userDefs>
				<v:ud v:nameU="visVersion" v:prompt="" v:val="VT0(15):26"/>
				<v:ud v:nameU="ShapeClass" v:prompt="" v:val="VT0(5):26"/>
				<v:ud v:nameU="SolSH" v:prompt="" v:val="VT15({BF0433D9-CD73-4EB5-8390-8653BE590246}):41"/>
				<v:ud v:nameU="visLegendShape" v:prompt="" v:val="VT0(2):26"/>
			</v:userDefs>
			<title>Laptop</title>
			<g id="shape18-25" v:mID="18" v:groupContext="shape" transform="translate(0,-4.7292)">
				<title>Sheet.18</title>
				<path d="M0 374.45 L51.08 374.45 L51.08 369.1 L46.7 361.71 L4.12 361.71 L0 369.1 L0 374.45 ZM46.84 360.49 L46.84
							 337.11 C46.84 334.75 44.93 332.84 42.57 332.84 L8.39 332.84 C6.03 332.84 4.12 334.75 4.12 337.11 L4.12
							 360.49 L46.84 360.49 Z" class="st3"/>
			</g>
			<g id="shape19-27" v:mID="19" v:groupContext="shape" transform="translate(5.02545,-10.6859)">
				<title>Sheet.19</title>
				<v:userDefs>
					<v:ud v:nameU="SurroundingRegionColor" v:prompt="" v:val="VT5(1)"/>
					<v:ud v:nameU="SurroundingRegionColor" v:prompt="" v:val="VT5(#ebebeb)"/>
				</v:userDefs>
				<path d="M2.06 370.77 L0 374.45 L40.94 374.45 L38.87 370.77 L2.06 370.77 Z" class="st6"/>
			</g>
			<g id="shape20-30" v:mID="20" v:groupContext="shape" transform="translate(8.23524,-23.1406)">
				<title>Sheet.20</title>
				<v:userDefs>
					<v:ud v:nameU="SurroundingRegionColor" v:prompt="" v:val="VT5(1)"/>
					<v:ud v:nameU="SurroundingRegionColor" v:prompt="" v:val="VT5(#ebebeb)"/>
				</v:userDefs>
				<rect x="0" y="355.245" width="34.6072" height="19.2088" class="st3"/>
			</g>
		</g>
		<g id="group21-32" transform="translate(44.4425,-262.77)" v:mID="21" v:groupContext="group">
			<title>User</title>
			<g id="shape22-33" v:mID="22" v:groupContext="shape">
				<title>Sheet.22</title>
				<path d="M48.19 374.45 L0 374.45 L0 362.64 C0 360.87 0.9 359.1 2.41 357.92 C5.72 355.56 9.94 353.49 14.16 352.31
							 C17.47 351.42 20.78 350.83 24.09 350.83 C27.71 350.83 31.02 351.42 34.03 352.31 C38.25 353.49 42.47
							 355.26 45.78 357.92 C47.29 359.1 48.19 360.87 48.19 362.64 L48.19 374.45 ZM36.14 336.07 A12.0472 11.811
							 0 1 1 12.05 336.07 A12.0472 11.811 0 1 1 36.14 336.07 Z" class="st7"/>
			</g>
		</g>
		<g id="group24-35" transform="translate(406.853,-270.088)" v:mID="24" v:groupContext="group">
			<title>Gears</title>
			<g id="shape25-36" v:mID="25" v:groupContext="shape">
				<title>Sheet.25</title>
				<path d="M17.18 360.69 C17.51 361.24 17.75 361.85 17.93 362.49 L20 363.51 L20 365.82 L17.93 366.83 C17.75 367.48
							 17.51 368.08 17.18 368.63 L17.89 370.76 L16.24 372.42 L14.04 371.68 C13.47 372.01 12.86 372.24 12.21
							 372.42 L11.17 374.45 L8.83 374.45 L7.79 372.42 C7.14 372.24 6.53 372.01 5.96 371.68 L3.76 372.38 L2.11
							 370.76 L2.82 368.59 C2.49 368.03 2.25 367.43 2.07 366.79 L0 365.77 L0 363.46 L2.07 362.45 C2.25 361.85
							 2.49 361.2 2.82 360.64 L2.11 358.47 L3.76 356.86 L5.96 357.6 C6.53 357.27 7.14 357.04 7.79 356.86 L8.83
							 354.82 L11.17 354.82 L12.21 356.86 C12.82 357.04 13.47 357.27 14.04 357.6 L16.24 356.86 L17.93 358.52
							 L17.18 360.69 ZM10 368.13 C11.97 368.13 13.52 366.56 13.52 364.66 C13.52 362.77 11.97 361.2 10 361.2
							 C8.08 361.2 6.48 362.72 6.48 364.66 C6.48 366.56 8.03 368.13 10 368.13 ZM28.54 345.68 L30.61 346.7 L30.61
							 349.01 L28.54 350.02 C28.36 350.62 28.08 351.27 27.75 351.82 L28.5 353.99 L26.81 355.61 L24.6 354.87
							 C24.04 355.19 23.43 355.43 22.77 355.61 L21.74 357.64 L19.39 357.64 L18.36 355.61 C17.7 355.43 17.09
							 355.19 16.53 354.87 L14.32 355.61 L12.68 353.99 L13.43 351.82 C13.1 351.27 12.86 350.67 12.68 350.02
							 L10.61 349.01 L10.61 346.7 L12.68 345.68 C12.86 345.03 13.1 344.43 13.43 343.88 L12.68 341.71 L14.37
							 340.05 L16.57 340.78 C17.14 340.46 17.75 340.23 18.4 340.05 L19.44 338.01 L21.78 338.01 L22.82 340.05
							 C23.47 340.23 24.08 340.46 24.65 340.78 L26.85 340.05 L28.54 341.71 L27.79 343.88 C28.12 344.43 28.36
							 345.03 28.54 345.68 ZM20.61 351.31 C22.54 351.31 24.13 349.74 24.13 347.85 C24.13 345.96 22.58 344.39
							 20.61 344.39 C18.69 344.39 17.09 345.96 17.09 347.85 C17.09 349.74 18.64 351.31 20.61 351.31 Z"
						class="st8"/>
			</g>
		</g>
		<g id="shape32-38" v:mID="32" v:groupContext="shape" transform="translate(205.847,-274.703)">
			<title>Home</title>
			<v:userDefs>
				<v:ud v:nameU="msvShapeCategories" v:prompt="" v:val="VT4(Icon)"/>
				<v:ud v:nameU="visVersion" v:prompt="" v:val="VT0(15):26"/>
			</v:userDefs>
			<path d="M15.31 347.24 L8.61 354.07 L8.61 350.16 L6.7 350.16 L6.7 356.02 L0 362.84 L1.43 364.25 L3.83 361.82 L3.83 374.45
						 L26.78 374.45 L26.78 361.82 L29.18 364.25 L30.61 362.84 L15.31 347.24 ZM21.04 372.51 L16.26 372.51 L16.26
						 361.82 L21.04 361.82 L21.04 372.51 ZM24.87 372.51 L22 372.51 L22 360.85 L15.31 360.85 L15.31 372.51 L5.74
						 372.51 L5.74 359.88 L15.31 350.16 L24.87 359.88 L24.87 372.51 ZM8.61 365.71 L13.39 365.71 L13.39 360.85
						 L8.61 360.85 L8.61 365.71 ZM9.57 361.82 L12.44 361.82 L12.44 364.74 L9.57 364.74 L9.57 361.82 ZM18.17 368.62
						 a0.955699 0.97099 -180 0 0 0.956573 -0.971879 a0.955699 0.97099 -180 0 0 -0.956573 -0.971879 a0.955699 0.97099
						 -180 0 0 -0.956573 0.971879 a0.955699 0.97099 -180 0 0 0.956573 0.971879 Z" class="st9"/>
		</g>
		<g id="shape33-40" v:mID="33" v:groupContext="shape" v:layerMember="1" transform="translate(112.544,-281.222)">
			<title>Dynamic connector</title>
			<path d="M0 367.37 L76.27 367.37" class="st10"/>
		</g>
		<g id="shape34-46" v:mID="34" v:groupContext="shape" v:layerMember="1" transform="translate(246.691,-281.222)">
			<title>Dynamic connector.34</title>
			<path d="M0 367.37 L143.13 367.37" class="st10"/>
		</g>
		<g id="shape35-51" v:mID="35" v:groupContext="shape" v:layerMember="1" transform="translate(415.072,-262.77)">
			<title>Dynamic connector.35</title>
			<path d="M7.09 374.45 L7.09 448.95" class="st10"/>
		</g>
		<g id="shape36-56" v:mID="36" v:groupContext="shape" v:layerMember="1" transform="translate(388.783,-137.337)">
			<title>Dynamic connector.36</title>
			<path d="M0 367.37 L-144.95 367.37" class="st12"/>
		</g>
		<g id="shape37-59" v:mID="37" v:groupContext="shape" v:layerMember="1" transform="translate(214.066,-262.77)">
			<title>Dynamic connector.37</title>
			<path d="M7.09 374.45 L7.09 460.06" class="st12"/>
		</g>
		<g id="shape6-62" v:mID="6" v:groupContext="shape" transform="translate(161.879,-228.597)">
			<title>Sheet.6</title>
			<desc>Login Node</desc>
			<v:textBlock v:margins="rect(4,4,4,4)" v:tabSpace="42.5197"/>
			<v:textRect cx="59.2732" cy="364.454" width="118.55" height="20"/>
			<rect x="0" y="354.454" width="118.546" height="20" class="st1"/>
			<text x="23.47" y="368.65" class="st13" v:langID="2057"><v:paragraph v:horizAlign="1"/><v:tabList/>Login Node</text>		</g>
		<g id="group1-65" transform="translate(379.665,-92.6916)" v:mID="1" v:groupContext="group">
			<v:custProps>
				<v:cp v:nameU="ShapeClass" v:lbl="ShapeClass" v:prompt="" v:type="0" v:format="" v:sortKey="" v:invis="true"
						v:ask="false" v:langID="1033" v:cal="0" v:val="VT4(Location)"/>
				<v:cp v:nameU="ShapeType" v:lbl="ShapeType" v:prompt="" v:type="0" v:format="" v:sortKey="" v:invis="true"
						v:ask="false" v:langID="1033" v:cal="0" v:val="VT4(Data Center)"/>
			</v:custProps>
			<v:userDefs>
				<v:ud v:nameU="visVersion" v:prompt="" v:val="VT0(15):26"/>
				<v:ud v:nameU="ShapeClass" v:prompt="" v:val="VT0(5):26"/>
				<v:ud v:nameU="SolSH" v:prompt="" v:val="VT15({BF0433D9-CD73-4EB5-8390-8653BE590246}):41"/>
				<v:ud v:nameU="visLegendShape" v:prompt="" v:val="VT0(2):26"/>
			</v:userDefs>
			<title>Data Center</title>
			<desc>Compute Servers</desc>
			<g id="shape2-66" v:mID="2" v:groupContext="shape" transform="translate(0,-14.6729)">
				<title>Sheet.2</title>
				<ellipse cx="51.7323" cy="359.784" rx="51.7323" ry="14.6703" class="st14"/>
			</g>
			<g id="shape3-68" v:mID="3" v:groupContext="shape" transform="translate(9.11827,-24.202)">
				<title>Sheet.3</title>
				<path d="M55.12 334.34 L29.51 334.34 L29.51 374.45 L55.12 374.45 L55.12 334.34 ZM25.61 334.34 L0 334.34 L0 374.45
							 L25.61 374.45 L25.61 334.34 ZM59.1 334.34 L59.1 374.45 L84.71 374.45 L84.71 334.34 L59.1 334.34 ZM44.74
							 321.16 L44.74 334.34 L55.12 334.34 L55.12 361.27 L59.1 361.27 L59.1 334.34 L70.34 334.34 L70.34 321.16
							 L44.74 321.16 ZM44.74 321.16 L55.16 321.16 L55.16 309.86 L29.55 309.86 L29.55 321.16 L39.98 321.16 L39.98
							 334.34 L44.74 334.34 L44.74 321.16 ZM39.98 321.16 L14.37 321.16 L14.37 334.34 L25.61 334.34 L25.61 361.27
							 L29.51 361.27 L29.51 334.34 L39.98 334.34 L39.98 321.16 Z" class="st3"/>
			</g>
			<g id="shape4-70" v:mID="4" v:groupContext="shape" transform="translate(19.2341,-30.9966)">
				<title>Sheet.4</title>
				<v:userDefs>
					<v:ud v:nameU="SurroundingRegionColor" v:prompt="" v:val="VT5(1)"/>
					<v:ud v:nameU="SurroundingRegionColor" v:prompt="" v:val="VT5(#ebebeb)"/>
				</v:userDefs>
				<path d="M69.89 362.47 A1.54734 1.54734 -180 1 0 66.79 362.47 A1.54734 1.54734 -180 1 0 69.89 362.47 ZM58.85 368.12
							 L69.89 368.12 L69.89 367.08 L58.85 367.08 L58.85 368.12 ZM58.85 371.29 L69.89 371.29 L69.89 370.25 L58.85
							 370.25 L58.85 371.29 ZM58.85 374.45 L69.89 374.45 L69.89 373.41 L58.85 373.41 L58.85 374.45 ZM39.98
							 362.47 A1.54734 1.54734 -180 1 0 36.89 362.47 A1.54734 1.54734 -180 1 0 39.98 362.47 ZM28.95 368.12
							 L39.98 368.12 L39.98 367.08 L28.95 367.08 L28.95 368.12 ZM28.95 371.29 L39.98 371.29 L39.98 370.25 L28.95
							 370.25 L28.95 371.29 ZM28.95 374.45 L39.98 374.45 L39.98 373.41 L28.95 373.41 L28.95 374.45 ZM11.03
							 362.47 A1.54734 1.54734 -180 1 0 7.94 362.47 A1.54734 1.54734 -180 1 0 11.03 362.47 ZM-0 368.12 L11.03
							 368.12 L11.03 367.08 L-0 367.08 L-0 368.12 ZM-0 371.29 L11.03 371.29 L11.03 370.25 L-0 370.25 L-0 371.29
							 ZM-0 374.45 L11.03 374.45 L11.03 373.41 L-0 373.41 L-0 374.45 Z" class="st6"/>
			</g>
			<g id="shape1-73" v:mID="1" v:groupContext="groupContent">
				<v:textBlock v:margins="rect(4,4,4,4)" v:tabSpace="42.5197"/>
				<v:textRect cx="51.7323" cy="380.123" width="120.83" height="24.8035"/>
				<text x="-2.73" y="384.32" class="st13" v:langID="2057"><v:paragraph v:horizAlign="1"/><v:tabList/>Compute Servers</text>			</g>
		</g>
		<g id="shape10-75" v:mID="10" v:groupContext="shape" transform="translate(362.885,-228.597)">
			<title>Sheet.10</title>
			<desc>Scheduler</desc>
			<v:textBlock v:margins="rect(4,4,4,4)" v:tabSpace="42.5197"/>
			<v:textRect cx="59.2732" cy="364.454" width="118.55" height="20"/>
			<rect x="0" y="354.454" width="118.546" height="20" class="st15"/>
			<text x="27.75" y="368.65" class="st13" v:langID="2057"><v:paragraph v:horizAlign="1"/><v:tabList/>Scheduler</text>		</g>
		<g id="shape16-78" v:mID="16" v:groupContext="shape" transform="translate(159.299,-78.5184)">
			<title>Sheet.16</title>
			<desc>Shared Storage</desc>
			<v:textBlock v:margins="rect(4,4,4,4)" v:tabSpace="42.5197"/>
			<v:textRect cx="59.2732" cy="364.454" width="118.55" height="20"/>
			<rect x="0" y="354.454" width="118.546" height="20" class="st15"/>
			<text x="10.24" y="368.65" class="st13" v:langID="2057"><v:paragraph v:horizAlign="1"/><v:tabList/>Shared Storage</text>		</g>
		<g id="shape41-81" v:mID="41" v:groupContext="shape" transform="translate(40.8353,-228.597)">
			<title>Sheet.41</title>
			<desc>User</desc>
			<v:textBlock v:margins="rect(4,4,4,4)" v:tabSpace="42.5197"/>
			<v:textRect cx="46.9988" cy="364.454" width="94" height="20"/>
			<rect x="0" y="354.454" width="93.9976" height="20" class="st1"/>
			<text x="32.22" y="368.65" class="st13" v:langID="2057"><v:paragraph v:horizAlign="1"/><v:tabList/>User</text>		</g>
		<g id="shape42-84" v:mID="42" v:groupContext="shape" transform="translate(161.64,-157.34) rotate(-15)">
			<title>Sheet.42</title>
			<desc>HPC Network</desc>
			<v:textBlock v:margins="rect(4,4,4,4)" v:tabSpace="42.5197"/>
			<v:textRect cx="76" cy="364.454" width="152" height="20"/>
			<rect x="0" y="354.454" width="152" height="20" class="st16"/>
			<text x="25.08" y="369.85" class="st17" v:langID="2057"><v:paragraph v:horizAlign="1"/><v:tabList/>HPC Network</text>		</g>
	</g>
</svg>
